<svg id="visual" viewBox="0 0 900 800" width="900" height="800" xmlns="http://www.w3.org/2000/svg" xmlns:xlink="http://www.w3.org/1999/xlink" version="1.1"><path d="M0 257L13.7 241C27.3 225 54.7 193 82 193C109.3 193 136.7 225 163.8 222.3C191 219.7 218 182.3 245.2 174.3C272.3 166.3 299.7 187.7 327 183.7C354.3 179.7 381.7 150.3 409 150.3C436.3 150.3 463.7 179.7 491 198.3C518.3 217 545.7 225 573 214.3C600.3 203.7 627.7 174.3 654.8 167.7C682 161 709 177 736.2 206.3C763.3 235.7 790.7 278.3 818 290.3C845.3 302.3 872.7 283.7 886.3 274.3L900 265L900 0L886.3 0C872.7 0 845.3 0 818 0C790.7 0 763.3 0 736.2 0C709 0 682 0 654.8 0C627.7 0 600.3 0 573 0C545.7 0 518.3 0 491 0C463.7 0 436.3 0 409 0C381.7 0 354.3 0 327 0C299.7 0 272.3 0 245.2 0C218 0 191 0 163.8 0C136.7 0 109.3 0 82 0C54.7 0 27.3 0 13.7 0L0 0Z" fill="#6198ff"></path><path d="M0 561L13.7 531.7C27.3 502.3 54.7 443.7 82 417C109.3 390.3 136.7 395.7 163.8 411.7C191 427.7 218 454.3 245.2 477C272.3 499.7 299.7 518.3 327 506.3C354.3 494.3 381.7 451.7 409 454.3C436.3 457 463.7 505 491 519.7C518.3 534.3 545.7 515.7 573 499.7C600.3 483.7 627.7 470.3 654.8 463.7C682 457 709 457 736.2 466.3C763.3 475.7 790.7 494.3 818 498.3C845.3 502.3 872.7 491.7 886.3 486.3L900 481L900 263L886.3 272.3C872.7 281.7 845.3 300.3 818 288.3C790.7 276.3 763.3 233.7 736.2 204.3C709 175 682 159 654.8 165.7C627.7 172.3 600.3 201.7 573 212.3C545.7 223 518.3 215 491 196.3C463.7 177.7 436.3 148.3 409 148.3C381.7 148.3 354.3 177.7 327 181.7C299.7 185.7 272.3 164.3 245.2 172.3C218 180.3 191 217.7 163.8 220.3C136.7 223 109.3 191 82 191C54.7 191 27.3 223 13.7 239L0 255Z" fill="#3c80ff"></path><path d="M0 649L13.7 637C27.3 625 54.7 601 82 595.7C109.3 590.3 136.7 603.7 163.8 605C191 606.3 218 595.7 245.2 594.3C272.3 593 299.7 601 327 597C354.3 593 381.7 577 409 585C436.3 593 463.7 625 491 638.3C518.3 651.7 545.7 646.3 573 641C600.3 635.7 627.7 630.3 654.8 630.3C682 630.3 709 635.7 736.2 639.7C763.3 643.7 790.7 646.3 818 631.7C845.3 617 872.7 585 886.3 569L900 553L900 479L886.3 484.3C872.7 489.7 845.3 500.3 818 496.3C790.7 492.3 763.3 473.7 736.2 464.3C709 455 682 455 654.8 461.7C627.7 468.3 600.3 481.7 573 497.7C545.7 513.7 518.3 532.3 491 517.7C463.7 503 436.3 455 409 452.3C381.7 449.7 354.3 492.3 327 504.3C299.7 516.3 272.3 497.7 245.2 475C218 452.3 191 425.7 163.8 409.7C136.7 393.7 109.3 388.3 82 415C54.7 441.7 27.3 500.3 13.7 529.7L0 559Z" fill="#0066ff"></path><path d="M0 697L13.7 686.3C27.3 675.7 54.7 654.3 82 654.3C109.3 654.3 136.7 675.7 163.8 689C191 702.3 218 707.7 245.2 705C272.3 702.3 299.7 691.7 327 678.3C354.3 665 381.7 649 409 654.3C436.3 659.7 463.7 686.3 491 701C518.3 715.7 545.7 718.3 573 722.3C600.3 726.3 627.7 731.7 654.8 735.7C682 739.7 709 742.3 736.2 742.3C763.3 742.3 790.7 739.7 818 730.3C845.3 721 872.7 705 886.3 697L900 689L900 551L886.3 567C872.7 583 845.3 615 818 629.7C790.7 644.3 763.3 641.7 736.2 637.7C709 633.7 682 628.3 654.8 628.3C627.7 628.3 600.3 633.7 573 639C545.7 644.3 518.3 649.7 491 636.3C463.7 623 436.3 591 409 583C381.7 575 354.3 591 327 595C299.7 599 272.3 591 245.2 592.3C218 593.7 191 604.3 163.8 603C136.7 601.7 109.3 588.3 82 593.7C54.7 599 27.3 623 13.7 635L0 647Z" fill="#0059dd"></path><path d="M0 801L13.7 801C27.3 801 54.7 801 82 801C109.3 801 136.7 801 163.8 801C191 801 218 801 245.2 801C272.3 801 299.7 801 327 801C354.3 801 381.7 801 409 801C436.3 801 463.7 801 491 801C518.3 801 545.7 801 573 801C600.3 801 627.7 801 654.8 801C682 801 709 801 736.2 801C763.3 801 790.7 801 818 801C845.3 801 872.7 801 886.3 801L900 801L900 687L886.3 695C872.7 703 845.3 719 818 728.3C790.7 737.7 763.3 740.3 736.2 740.3C709 740.3 682 737.7 654.8 733.7C627.7 729.7 600.3 724.3 573 720.3C545.7 716.3 518.3 713.7 491 699C463.7 684.3 436.3 657.7 409 652.3C381.7 647 354.3 663 327 676.3C299.7 689.7 272.3 700.3 245.2 703C218 705.7 191 700.3 163.8 687C136.7 673.7 109.3 652.3 82 652.3C54.7 652.3 27.3 673.7 13.7 684.3L0 695Z" fill="#004cbb"></path></svg>